<?xml version="1.0" encoding="UTF-8"?>
<svg width="15px" height="15px" version="1.1" viewBox="0 0 700 700" xmlns="http://www.w3.org/2000/svg">
 <path fill = "#FFAB1A" d="m582.12 210.49c-2.1992-5.332-5.9375-9.8906-10.738-13.098-4.7969-3.2031-10.441-4.9062-16.211-4.8906h-123.67l-54.695-127.73c-3.0156-7.043-8.6797-12.617-15.77-15.523-7.0898-2.9023-15.035-2.9023-22.125 0-7.0898 2.9062-12.754 8.4805-15.77 15.523l-54.672 127.73h-123.67 0.003906c-7.7383 0-15.16 3.0703-20.629 8.543-5.4727 5.4688-8.5469 12.887-8.5469 20.625 0 7.7344 3.0742 15.156 8.5469 20.625l89.762 89.742-37.613 150.54c-1.8555 7.4375-0.71094 15.301 3.1875 21.898 3.8984 6.5977 10.234 11.398 17.641 13.359 7.4102 1.9648 15.289 0.93359 21.945-2.8711l130.9-74.805 130.92 74.828c6.6562 3.7969 14.539 4.8242 21.941 2.8555 7.4062-1.9688 13.738-6.7695 17.633-13.367 3.8906-6.5977 5.0312-14.465 3.1758-21.898l-37.613-150.54 89.738-89.738v-0.003906c4.0938-4.0742 6.8789-9.2734 8.0078-14.938 1.125-5.6641 0.53906-11.535-1.6836-16.867z"/>
</svg>
